<?xml version="1.0" encoding="UTF-8" standalone="no"?>
<!-- Created with Inkscape (http://www.inkscape.org/) -->

<svg
   width="915.83099mm"
   height="915.83099mm"
   viewBox="0 0 915.83099 915.83099"
   version="1.1"
   id="svg5"
   inkscape:version="1.1.2 (b8e25be833, 2022-02-05)"
   sodipodi:docname="rocket_texture.svg"
   inkscape:export-filename="C:\Users\Usuário\Documents\Projetos\GameEngine2\models\rocket_texture.png"
   inkscape:export-xdpi="96"
   inkscape:export-ydpi="96"
   xmlns:inkscape="http://www.inkscape.org/namespaces/inkscape"
   xmlns:sodipodi="http://sodipodi.sourceforge.net/DTD/sodipodi-0.dtd"
   xmlns="http://www.w3.org/2000/svg"
   xmlns:svg="http://www.w3.org/2000/svg">
  <sodipodi:namedview
     id="namedview7"
     pagecolor="#ffffff"
     bordercolor="#666666"
     borderopacity="1.0"
     inkscape:pageshadow="2"
     inkscape:pageopacity="0.0"
     inkscape:pagecheckerboard="0"
     inkscape:document-units="mm"
     showgrid="false"
     inkscape:zoom="0.17772517"
     inkscape:cx="1541.7062"
     inkscape:cy="1567.0262"
     inkscape:window-width="1920"
     inkscape:window-height="991"
     inkscape:window-x="-9"
     inkscape:window-y="-9"
     inkscape:window-maximized="1"
     inkscape:current-layer="layer1" />
  <defs
     id="defs2" />
  <g
     inkscape:label="Camada 1"
     inkscape:groupmode="layer"
     id="layer1">
    <rect
       style="fill:#cccccc;stroke:none;stroke-width:1;stroke-linecap:round;stroke-linejoin:round;stroke-dasharray:7.99999, 4"
       id="rect3701"
       width="915.83099"
       height="915.83099"
       x="0"
       y="5.6843419e-14"
       inkscape:export-filename="C:\Users\Usuário\Documents\Projetos\GameEngine2\models\rocket_texture.png"
       inkscape:export-xdpi="96"
       inkscape:export-ydpi="96" />
    <path
       id="path1213"
       style="fill:#b3b3b3;stroke:#000000;stroke-width:0.999999px;stroke-linecap:butt;stroke-linejoin:miter;stroke-opacity:1"
       d="M 431.68359 9.9472656 L 244.66602 31.839844 L 77.572266 91.541016 L 19.882812 258.63281 L 0.009765625 445.64062 L 19.914062 628.67969 L 77.572266 797.69922 L 246.66602 857.43164 L 431.68359 877.26172 L 616.70117 857.43164 L 785.79492 797.69922 L 843.45312 628.67969 L 863.35742 445.64062 L 843.48438 258.63281 L 785.79492 91.541016 L 618.70117 31.839844 L 431.68359 9.9472656 z "
       transform="scale(0.26458333)"
       inkscape:export-filename="C:\Users\Usuário\Documents\Projetos\GameEngine2\models\rocket_texture.png"
       inkscape:export-xdpi="96"
       inkscape:export-ydpi="96" />
    <path
       id="path1213-0"
       style="fill:#b3b3b3;stroke:#000000;stroke-width:0.264583px;stroke-linecap:butt;stroke-linejoin:miter;stroke-opacity:1"
       d="m 342.64368,2.6318782 -49.48173,5.792411 -44.21022,15.7959348 -15.26367,44.209703 -5.25808,49.479153 5.26635,48.42908 15.2554,44.71975 44.73938,15.80421 48.95257,5.24671 48.95256,-5.24671 44.73939,-15.80421 15.2554,-44.71975 5.26635,-48.42908 L 451.5993,68.429927 436.33563,24.220224 392.12541,8.4242892 Z"
       inkscape:export-filename="C:\Users\Usuário\Documents\Projetos\GameEngine2\models\rocket_texture.png"
       inkscape:export-xdpi="96"
       inkscape:export-ydpi="96" />
    <path
       id="path1213-0-2"
       style="fill:#b3b3b3;stroke:#000000;stroke-width:0.264583px;stroke-linecap:butt;stroke-linejoin:miter;stroke-opacity:1"
       d="m 571.07108,2.63188 -49.48173,5.792411 -44.21022,15.795935 -15.26367,44.209703 -5.25808,49.479151 5.26635,48.42908 15.2554,44.71975 44.73938,15.80421 48.95257,5.24671 48.95256,-5.24671 44.73939,-15.80421 15.2554,-44.71975 5.26635,-48.42908 L 680.0267,68.429929 664.76303,24.220226 620.55281,8.424291 Z"
       inkscape:export-filename="C:\Users\Usuário\Documents\Projetos\GameEngine2\models\rocket_texture.png"
       inkscape:export-xdpi="96"
       inkscape:export-ydpi="96" />
    <path
       id="path1213-0-2-7"
       style="fill:#b3b3b3;stroke:#000000;stroke-width:0.264583px;stroke-linecap:butt;stroke-linejoin:miter;stroke-opacity:1"
       d="m 799.49848,2.63188 -49.48173,5.792411 -44.21022,15.795935 -15.26367,44.209703 -5.25808,49.479151 5.26635,48.42908 15.2554,44.71975 44.73938,15.80421 48.95257,5.24671 48.95256,-5.24671 44.73939,-15.80421 15.2554,-44.71975 5.26635,-48.42908 L 908.4541,68.429929 893.19043,24.220226 848.98021,8.424291 Z"
       inkscape:export-filename="C:\Users\Usuário\Documents\Projetos\GameEngine2\models\rocket_texture.png"
       inkscape:export-xdpi="96"
       inkscape:export-ydpi="96" />
    <path
       id="path2190"
       style="fill:#cccccc;stroke:#000000;stroke-width:0.999999px;stroke-linecap:butt;stroke-linejoin:miter;stroke-opacity:1"
       d="M 430.68945 866.4043 L 246.6875 880.27734 L 79.572266 925.03711 L 20.888672 1051.3809 L 0 1195.6074 L 0 2266.8809 L 19.892578 2409.0957 L 80.578125 2535.3965 L 245.68164 2580.1562 L 429.69531 2592.9492 L 429.69531 2593.0879 L 430.68945 2593.0195 L 431.68359 2593.0879 L 431.68359 2592.9492 L 615.69727 2580.1562 L 780.80078 2535.3965 L 841.48438 2409.0957 L 861.37891 2266.8809 L 861.37891 1195.6074 L 840.49023 1051.3809 L 781.80469 925.03711 L 614.69141 880.27734 L 430.68945 866.4043 z "
       transform="scale(0.26458333)"
       inkscape:export-filename="C:\Users\Usuário\Documents\Projetos\GameEngine2\models\rocket_texture.png"
       inkscape:export-xdpi="96"
       inkscape:export-ydpi="96" />
    <path
       id="path2190-2"
       style="fill:#cccccc;stroke:#000000;stroke-width:0.264583px;stroke-linecap:butt;stroke-linejoin:miter;stroke-opacity:1"
       d="m 341.85975,229.23613 -48.68385,3.67058 -44.2159,11.84269 -15.52671,33.42846 -5.52679,38.15993 V 599.7789 l 5.26325,37.62766 16.05638,33.41709 43.68364,11.84267 48.68695,3.38481 v 0.0367 l 0.26303,-0.018 0.26303,0.018 v -0.0367 l 48.68695,-3.38481 43.68364,-11.84267 16.05587,-33.41709 5.26376,-37.62766 V 316.33779 L 450.2862,278.17786 434.75899,244.7494 390.5436,232.90671 Z"
       inkscape:export-filename="C:\Users\Usuário\Documents\Projetos\GameEngine2\models\rocket_texture.png"
       inkscape:export-xdpi="96"
       inkscape:export-ydpi="96" />
    <path
       id="path2190-2-9"
       style="fill:#cccccc;stroke:#000000;stroke-width:0.264583px;stroke-linecap:butt;stroke-linejoin:miter;stroke-opacity:1"
       d="m 569.76625,229.23613 -48.68385,3.67058 -44.2159,11.84269 -15.52671,33.42846 -5.52679,38.15993 V 599.7789 l 5.26325,37.62766 16.05638,33.41709 43.68364,11.84267 48.68695,3.38481 v 0.0367 l 0.26303,-0.018 0.26303,0.018 v -0.0367 l 48.68695,-3.38481 43.68364,-11.84267 16.05587,-33.41709 5.26376,-37.62766 V 316.33779 L 678.1927,278.17786 662.66549,244.7494 618.4501,232.90671 Z"
       inkscape:export-filename="C:\Users\Usuário\Documents\Projetos\GameEngine2\models\rocket_texture.png"
       inkscape:export-xdpi="96"
       inkscape:export-ydpi="96" />
    <path
       id="path2190-2-9-1"
       style="fill:#cccccc;stroke:#000000;stroke-width:0.264583px;stroke-linecap:butt;stroke-linejoin:miter;stroke-opacity:1"
       d="m 797.67275,229.23613 -48.68385,3.67058 -44.2159,11.84269 -15.52671,33.42846 -5.52679,38.15993 V 599.7789 l 5.26325,37.62766 16.05638,33.41709 43.68364,11.84267 48.68695,3.38481 v 0.0367 l 0.26303,-0.018 0.26303,0.018 v -0.0367 l 48.68695,-3.38481 43.68364,-11.84267 16.05587,-33.41709 5.26376,-37.62766 V 316.33779 L 906.0992,278.17786 890.57199,244.7494 846.3566,232.90671 Z"
       inkscape:export-filename="C:\Users\Usuário\Documents\Projetos\GameEngine2\models\rocket_texture.png"
       inkscape:export-xdpi="96"
       inkscape:export-ydpi="96" />
  </g>
</svg>
