# Blender v3.1.2 OBJ File: ''
# www.blender.org
o Plano
v -4.000000 0.000000 4.000000
v 4.000000 0.000000 4.000000
v -4.000000 0.000000 -4.000000
v 4.000000 0.000000 -4.000000
v -4.000000 0.000000 -3.111111
v -4.000000 0.000000 -2.222222
v -4.000000 0.000000 -1.333333
v -4.000000 0.000000 -0.444444
v -4.000000 0.000000 0.444445
v -4.000000 0.000000 1.333333
v -4.000000 0.000000 2.222222
v -4.000000 0.000000 3.111111
v -3.111111 0.000000 4.000000
v -2.222222 0.000000 4.000000
v -1.333333 0.000000 4.000000
v -0.444444 0.000000 4.000000
v 0.444445 0.000000 4.000000
v 1.333333 0.000000 4.000000
v 2.222222 0.000000 4.000000
v 3.111111 0.000000 4.000000
v 4.000000 0.000000 3.111111
v 4.000000 0.000000 2.222222
v 4.000000 0.000000 1.333333
v 4.000000 0.000000 0.444444
v 4.000000 0.000000 -0.444445
v 4.000000 0.000000 -1.333333
v 4.000000 0.000000 -2.222222
v 4.000000 0.000000 -3.111111
v 3.111111 0.000000 -4.000000
v 2.222222 0.000000 -4.000000
v 1.333333 0.000000 -4.000000
v 0.444444 0.000000 -4.000000
v -0.444445 0.000000 -4.000000
v -1.333333 0.000000 -4.000000
v -2.222222 0.000000 -4.000000
v -3.111111 0.000000 -4.000000
v -3.111111 0.000000 3.111111
v -3.111111 0.000000 2.222222
v -3.111111 0.000000 1.333333
v -3.111111 0.000000 0.444444
v -3.111111 0.000000 -0.444445
v -3.111111 0.000000 -1.333333
v -3.111111 0.000000 -2.222222
v -3.111111 0.000000 -3.111111
v -2.222222 0.000000 3.111111
v -2.222222 0.000000 2.222222
v -2.222222 0.000000 1.333333
v -2.222222 0.000000 0.444444
v -2.222222 0.000000 -0.444445
v -2.222222 0.000000 -1.333333
v -2.222222 0.000000 -3.111111
v -1.333333 0.000000 3.111111
v -1.333333 0.000000 2.222222
v -1.333333 0.000000 1.333333
v -1.333333 0.000000 0.444444
v -1.333333 0.000000 -0.444445
v -1.333333 0.000000 -1.333333
v -1.333333 0.000000 -2.222222
v -1.333333 0.000000 -3.111111
v -0.444444 0.000000 3.111111
v -0.444444 0.000000 2.222222
v -0.444444 0.000000 1.333333
v -0.444444 0.000000 0.444444
v -0.444444 0.000000 -0.444445
v -0.444444 0.000000 -1.333333
v -0.444445 0.000000 -2.222222
v -0.444445 0.000000 -3.111111
v 0.444445 0.000000 3.111111
v 0.444445 0.000000 2.222222
v 0.444445 0.000000 1.333333
v 0.444444 0.000000 0.444444
v 0.444444 0.000000 -0.444445
v 0.444444 0.000000 -1.333333
v 0.444444 0.000000 -2.222222
v 0.444444 0.000000 -3.111111
v 1.333333 0.000000 3.111111
v 1.333333 0.000000 2.222222
v 1.333333 0.000000 1.333333
v 1.333333 0.000000 0.444444
v 1.333333 0.000000 -0.444445
v 1.333333 0.000000 -1.333333
v 1.333333 0.000000 -2.222222
v 1.333333 0.000000 -3.111111
v 2.222222 0.000000 3.111111
v 2.222222 0.000000 2.222222
v 2.222222 0.000000 1.333333
v 2.222222 0.000000 0.444444
v 2.222222 0.000000 -0.444445
v 2.222222 0.000000 -1.333333
v 2.222222 0.000000 -2.222222
v 2.222222 0.000000 -3.111111
v 3.111111 0.000000 3.111111
v 3.111111 0.000000 2.222222
v 3.111111 0.000000 1.333333
v 3.111111 0.000000 0.444444
v 3.111111 0.000000 -0.444445
v 3.111111 0.000000 -1.333333
v 3.111111 0.000000 -2.222222
v 3.111111 0.000000 -3.111111
v -3.111111 0.000000 -1.333333
v -3.111111 0.000000 -2.222222
v -3.111111 0.000000 -3.111111
v -2.222222 0.000000 -1.333333
v -2.222222 0.000000 -2.222222
v -2.222222 0.000000 -3.111111
v -1.333333 0.000000 -1.333333
v -1.333333 0.000000 -2.222222
v -1.333333 0.000000 -3.111111
vt 1.000000 0.000000
vt 0.000000 1.000000
vt 0.000000 0.000000
vt 1.000000 0.000000
vt 0.000000 1.000000
vt 0.000000 0.000000
vt 1.000000 0.000000
vt 0.000000 1.000000
vt 0.000000 0.000000
vt 1.000000 0.000000
vt 0.000000 1.000000
vt 0.000000 0.000000
vt 1.000000 0.000000
vt 0.000000 1.000000
vt 0.000000 0.000000
vt 1.000000 0.000000
vt 0.000000 1.000000
vt 0.000000 0.000000
vt 1.000000 0.000000
vt 0.000000 1.000000
vt 0.000000 0.000000
vt 1.000000 0.000000
vt 0.000000 1.000000
vt 0.000000 0.000000
vt 1.000000 0.000000
vt 0.000000 1.000000
vt 0.000000 0.000000
vt 1.000000 0.000000
vt 0.000000 1.000000
vt 0.000000 0.000000
vt 1.000000 0.000000
vt 0.000000 1.000000
vt 0.000000 0.000000
vt 1.000000 0.000000
vt 0.000000 1.000000
vt 0.000000 0.000000
vt 1.000000 0.000000
vt 0.000000 0.999999
vt 0.000000 0.000000
vt 1.000000 0.000001
vt 0.000000 1.000000
vt 0.000000 0.000000
vt 1.000000 0.000000
vt 0.000000 1.000000
vt 0.000000 0.000000
vt 1.000000 0.000000
vt 0.000000 1.000000
vt 0.000000 0.000000
vt 1.000000 0.000000
vt 0.000000 1.000000
vt 0.000000 0.000000
vt 1.000000 0.000000
vt 0.000000 1.000000
vt 0.000000 0.000000
vt 0.500000 0.000000
vt 0.000000 0.499999
vt 0.000000 0.000000
vt 0.500000 0.499999
vt 0.000000 1.000000
vt 1.000000 0.000000
vt 0.000000 1.000000
vt 0.000000 0.000000
vt 1.000000 0.000000
vt 0.000000 1.000000
vt 0.000000 0.000000
vt 1.000000 0.000000
vt 0.000000 1.000000
vt 0.000000 0.000000
vt 1.000000 0.000000
vt 0.000000 1.000000
vt 0.000000 0.000000
vt 1.000000 0.000000
vt 1.000000 0.499999
vt 0.500000 1.000000
vt 1.000000 0.000000
vt 0.000000 1.000000
vt 0.000000 0.000000
vt 1.000000 0.000000
vt 0.000000 1.000000
vt 0.000000 0.000000
vt 1.000000 0.000000
vt 0.000000 1.000000
vt 0.000000 0.000000
vt 1.000000 0.000000
vt 0.000000 1.000000
vt 0.000000 0.000000
vt 1.000000 0.000000
vt 0.000000 1.000000
vt 0.000000 0.000000
vt 1.000000 0.000000
vt 0.000000 1.000000
vt 0.000000 0.000000
vt 0.333333 0.000000
vt 0.000000 0.333333
vt 0.000000 0.000000
vt 0.333333 0.333333
vt 0.000000 0.666666
vt 0.333333 0.666666
vt 0.000000 1.000000
vt 1.000000 0.000000
vt 0.000000 1.000000
vt 0.000000 0.000000
vt 1.000000 0.000000
vt 0.000000 1.000000
vt 0.000000 0.000000
vt 1.000000 0.000000
vt 0.000000 1.000000
vt 0.000000 0.000000
vt 1.000000 0.000000
vt 0.000000 1.000000
vt 0.000000 0.000000
vt 1.000000 0.000000
vt 0.000000 1.000000
vt 0.000000 0.000000
vt 0.666666 0.000000
vt 0.666666 0.333333
vt 0.666666 0.666666
vt 0.333333 1.000000
vt 1.000000 0.000000
vt 0.000000 1.000000
vt 0.000000 0.000000
vt 1.000000 0.000000
vt 0.000000 1.000000
vt 0.000000 0.000000
vt 1.000000 0.000000
vt 0.000000 1.000000
vt 0.000000 0.000000
vt 1.000000 0.000000
vt 0.000000 1.000000
vt 0.000000 0.000000
vt 1.000000 0.000000
vt 0.000000 1.000000
vt 0.000000 0.000000
vt 1.000000 0.000000
vt 1.000000 0.333333
vt 1.000000 0.666666
vt 0.666666 1.000000
vt 1.000000 0.000000
vt 0.000000 1.000000
vt 0.000000 0.000000
vt 1.000000 0.000000
vt 0.000000 1.000000
vt 0.000000 0.000000
vt 1.000000 0.000000
vt 0.000000 1.000000
vt 0.000000 0.000000
vt 0.500000 0.000000
vt 0.000000 0.499999
vt 0.000000 0.000000
vt 0.500000 0.499999
vt 0.000000 1.000000
vt 1.000000 0.000000
vt 0.000000 1.000000
vt 0.000000 0.000000
vt 1.000000 0.000000
vt 0.000000 1.000000
vt 0.000000 0.000000
vt 1.000000 0.000000
vt 0.000000 1.000000
vt 0.000000 0.000000
vt 0.500000 0.000000
vt 0.000000 0.500001
vt 0.000000 0.000000
vt 0.500000 0.500001
vt 0.000000 1.000000
vt 1.000000 0.000000
vt 0.000000 1.000000
vt 0.000000 0.000000
vt 1.000000 0.000000
vt 1.000000 0.499999
vt 0.500000 1.000000
vt 1.000000 0.000000
vt 0.000000 1.000000
vt 0.000000 0.000000
vt 1.000000 0.000000
vt 0.000000 1.000000
vt 0.000000 0.000000
vt 1.000000 0.000000
vt 0.000000 1.000000
vt 0.000000 0.000000
vt 1.000000 0.000000
vt 1.000000 0.500001
vt 0.500000 1.000000
vt 1.000000 0.000000
vt 0.000000 1.000000
vt 0.000000 0.000000
vt 1.000000 0.000000
vt 0.000000 1.000000
vt 0.000000 0.000000
vt 1.000000 0.000000
vt 0.000000 1.000000
vt 0.000000 0.000000
vt 1.000000 0.000000
vt 0.000000 1.000000
vt 0.000000 0.000000
vt 1.000000 0.000000
vt 0.000000 1.000000
vt 0.000000 0.000000
vt 1.000000 0.000000
vt 0.000000 1.000000
vt 0.000000 0.000000
vt 1.000000 0.000000
vt 0.000000 1.000000
vt 0.000000 0.000000
vt 1.000000 0.000000
vt 0.000000 1.000000
vt 0.000000 0.000000
vt 0.500000 0.000000
vt 0.000000 0.500001
vt 0.000000 0.000000
vt 0.500000 0.500001
vt 0.000000 1.000000
vt 1.000000 0.000000
vt 1.000000 0.500001
vt 0.500000 1.000000
vt 1.000000 1.000000
vt 1.000000 1.000000
vt 1.000000 1.000000
vt 1.000000 1.000000
vt 1.000000 1.000000
vt 1.000000 1.000000
vt 1.000000 1.000000
vt 1.000000 1.000000
vt 1.000000 1.000000
vt 1.000000 1.000000
vt 1.000000 1.000000
vt 1.000000 1.000000
vt 1.000000 1.000000
vt 1.000000 1.000000
vt 1.000000 1.000000
vt 1.000000 1.000000
vt 1.000000 1.000000
vt 1.000000 1.000000
vt 1.000000 1.000000
vt 1.000000 1.000000
vt 1.000000 1.000000
vt 1.000000 1.000000
vt 1.000000 1.000000
vt 1.000000 1.000000
vt 1.000000 1.000000
vt 1.000000 1.000000
vt 1.000000 1.000000
vt 1.000000 1.000000
vt 1.000000 1.000000
vt 1.000000 1.000000
vt 1.000000 1.000000
vt 1.000000 1.000000
vt 1.000000 1.000000
vt 1.000000 1.000000
vt 1.000000 1.000000
vt 1.000000 1.000000
vt 1.000000 1.000000
vt 1.000000 1.000000
vt 1.000000 1.000000
vt 1.000000 1.000000
vt 1.000000 1.000000
vt 1.000000 1.000000
vt 1.000000 1.000000
vt 1.000000 1.000000
vt 1.000000 1.000000
vt 1.000000 1.000000
vt 1.000000 1.000000
vt 1.000000 1.000000
vt 1.000000 1.000000
vt 1.000000 1.000000
vt 1.000000 1.000000
vt 1.000000 1.000000
vt 1.000000 1.000000
vt 1.000000 1.000000
vt 1.000000 1.000000
vt 1.000000 1.000000
vt 1.000000 1.000000
vt 1.000000 1.000000
vt 1.000000 1.000000
vt 1.000000 1.000000
vt 1.000000 1.000000
vn 0.0000 1.0000 0.0000
s off
f 28/1/1 29/2/1 99/3/1
f 44/4/1 3/5/1 5/6/1
f 51/7/1 36/8/1 44/9/1
f 59/10/1 35/11/1 51/12/1
f 67/13/1 34/14/1 59/15/1
f 75/16/1 33/17/1 67/18/1
f 83/19/1 32/20/1 75/21/1
f 91/22/1 31/23/1 83/24/1
f 99/25/1 30/26/1 91/27/1
f 13/28/1 12/29/1 1/30/1
f 37/31/1 11/32/1 12/33/1
f 38/34/1 10/35/1 11/36/1
f 39/37/1 9/38/1 10/39/1
f 40/40/1 8/41/1 9/42/1
f 41/43/1 7/44/1 8/45/1
f 42/46/1 6/47/1 7/48/1
f 43/49/1 5/50/1 6/51/1
f 14/52/1 37/53/1 13/54/1
f 45/55/1 38/56/1 37/57/1
f 46/58/1 39/59/1 38/56/1
f 47/60/1 40/61/1 39/62/1
f 48/63/1 41/64/1 40/65/1
f 49/66/1 42/67/1 41/68/1
f 15/69/1 45/70/1 14/71/1
f 52/72/1 46/58/1 45/55/1
f 53/73/1 47/74/1 46/58/1
f 54/75/1 48/76/1 47/77/1
f 55/78/1 49/79/1 48/80/1
f 56/81/1 50/82/1 49/83/1
f 16/84/1 52/85/1 15/86/1
f 60/87/1 53/88/1 52/89/1
f 61/90/1 54/91/1 53/92/1
f 62/93/1 55/94/1 54/95/1
f 63/96/1 56/97/1 55/94/1
f 64/98/1 57/99/1 56/97/1
f 65/100/1 58/101/1 57/102/1
f 66/103/1 59/104/1 58/105/1
f 17/106/1 60/107/1 16/108/1
f 68/109/1 61/110/1 60/111/1
f 69/112/1 62/113/1 61/114/1
f 70/115/1 63/96/1 62/93/1
f 71/116/1 64/98/1 63/96/1
f 72/117/1 65/118/1 64/98/1
f 73/119/1 66/120/1 65/121/1
f 74/122/1 67/123/1 66/124/1
f 18/125/1 68/126/1 17/127/1
f 76/128/1 69/129/1 68/130/1
f 77/131/1 70/132/1 69/133/1
f 78/134/1 71/116/1 70/115/1
f 79/135/1 72/117/1 71/116/1
f 80/136/1 73/137/1 72/117/1
f 81/138/1 74/139/1 73/140/1
f 82/141/1 75/142/1 74/143/1
f 19/144/1 76/145/1 18/146/1
f 84/147/1 77/148/1 76/149/1
f 85/150/1 78/151/1 77/148/1
f 86/152/1 79/153/1 78/154/1
f 87/155/1 80/156/1 79/157/1
f 88/158/1 81/159/1 80/160/1
f 89/161/1 82/162/1 81/163/1
f 90/164/1 83/165/1 82/162/1
f 20/166/1 84/167/1 19/168/1
f 92/169/1 85/150/1 84/147/1
f 93/170/1 86/171/1 85/150/1
f 94/172/1 87/173/1 86/174/1
f 95/175/1 88/176/1 87/177/1
f 96/178/1 89/179/1 88/180/1
f 97/181/1 90/164/1 89/161/1
f 98/182/1 91/183/1 90/164/1
f 2/184/1 92/185/1 20/186/1
f 21/187/1 93/188/1 92/189/1
f 22/190/1 94/191/1 93/192/1
f 23/193/1 95/194/1 94/195/1
f 24/196/1 96/197/1 95/198/1
f 25/199/1 97/200/1 96/201/1
f 26/202/1 98/203/1 97/204/1
f 27/205/1 99/206/1 98/207/1
f 103/208/1 101/209/1 100/210/1
f 104/211/1 102/212/1 101/209/1
f 106/213/1 104/211/1 103/208/1
f 107/214/1 105/215/1 104/211/1
f 28/1/1 4/216/1 29/2/1
f 44/4/1 36/217/1 3/5/1
f 51/7/1 35/218/1 36/8/1
f 59/10/1 34/219/1 35/11/1
f 67/13/1 33/220/1 34/14/1
f 75/16/1 32/221/1 33/17/1
f 83/19/1 31/222/1 32/20/1
f 91/22/1 30/223/1 31/23/1
f 99/25/1 29/224/1 30/26/1
f 13/28/1 37/225/1 12/29/1
f 37/31/1 38/226/1 11/32/1
f 38/34/1 39/227/1 10/35/1
f 39/37/1 40/228/1 9/38/1
f 40/40/1 41/229/1 8/41/1
f 41/43/1 42/230/1 7/44/1
f 42/46/1 43/231/1 6/47/1
f 43/49/1 44/232/1 5/50/1
f 14/52/1 45/233/1 37/53/1
f 45/55/1 46/58/1 38/56/1
f 46/58/1 47/74/1 39/59/1
f 47/60/1 48/234/1 40/61/1
f 48/63/1 49/235/1 41/64/1
f 49/66/1 50/236/1 42/67/1
f 15/69/1 52/237/1 45/70/1
f 52/72/1 53/73/1 46/58/1
f 53/73/1 54/238/1 47/74/1
f 54/75/1 55/239/1 48/76/1
f 55/78/1 56/240/1 49/79/1
f 56/81/1 57/241/1 50/82/1
f 16/84/1 60/242/1 52/85/1
f 60/87/1 61/243/1 53/88/1
f 61/90/1 62/244/1 54/91/1
f 62/93/1 63/96/1 55/94/1
f 63/96/1 64/98/1 56/97/1
f 64/98/1 65/118/1 57/99/1
f 65/100/1 66/245/1 58/101/1
f 66/103/1 67/246/1 59/104/1
f 17/106/1 68/247/1 60/107/1
f 68/109/1 69/248/1 61/110/1
f 69/112/1 70/249/1 62/113/1
f 70/115/1 71/116/1 63/96/1
f 71/116/1 72/117/1 64/98/1
f 72/117/1 73/137/1 65/118/1
f 73/119/1 74/250/1 66/120/1
f 74/122/1 75/251/1 67/123/1
f 18/125/1 76/252/1 68/126/1
f 76/128/1 77/253/1 69/129/1
f 77/131/1 78/254/1 70/132/1
f 78/134/1 79/135/1 71/116/1
f 79/135/1 80/136/1 72/117/1
f 80/136/1 81/255/1 73/137/1
f 81/138/1 82/256/1 74/139/1
f 82/141/1 83/257/1 75/142/1
f 19/144/1 84/258/1 76/145/1
f 84/147/1 85/150/1 77/148/1
f 85/150/1 86/171/1 78/151/1
f 86/152/1 87/259/1 79/153/1
f 87/155/1 88/260/1 80/156/1
f 88/158/1 89/261/1 81/159/1
f 89/161/1 90/164/1 82/162/1
f 90/164/1 91/183/1 83/165/1
f 20/166/1 92/262/1 84/167/1
f 92/169/1 93/170/1 85/150/1
f 93/170/1 94/263/1 86/171/1
f 94/172/1 95/264/1 87/173/1
f 95/175/1 96/265/1 88/176/1
f 96/178/1 97/266/1 89/179/1
f 97/181/1 98/182/1 90/164/1
f 98/182/1 99/267/1 91/183/1
f 2/184/1 21/268/1 92/185/1
f 21/187/1 22/269/1 93/188/1
f 22/190/1 23/270/1 94/191/1
f 23/193/1 24/271/1 95/194/1
f 24/196/1 25/272/1 96/197/1
f 25/199/1 26/273/1 97/200/1
f 26/202/1 27/274/1 98/203/1
f 27/205/1 28/275/1 99/206/1
f 103/208/1 104/211/1 101/209/1
f 104/211/1 105/215/1 102/212/1
f 106/213/1 107/214/1 104/211/1
f 107/214/1 108/276/1 105/215/1
